# This file uses centimeters as units for non-parametric coordinates.

v 2.640383 0.767532 -0.707488
v 1.932895 0.767532 -1.932895
v 0.707488 0.767532 -2.640383
v -0.707488 0.767532 -2.640383
v -1.932895 0.767532 -1.932895
v -2.640383 0.767532 -0.707488
v -2.640383 0.767532 0.707488
v -1.932895 0.767532 1.932895
v -0.707488 0.767532 2.640383
v 0.707488 0.767532 2.640383
v 1.932895 0.767532 1.932895
v 2.640383 0.767532 0.707488
v 2.640383 -0.767532 -0.707488
v 1.932895 -0.767532 -1.932895
v 0.707488 -0.767532 -2.640383
v -0.707488 -0.767532 -2.640383
v -1.932895 -0.767532 -1.932895
v -2.640383 -0.767532 -0.707488
v -2.640383 -0.767532 0.707488
v -1.932895 -0.767532 1.932895
v -0.707488 -0.767532 2.640383
v 0.707488 -0.767532 2.640383
v 1.932895 -0.767532 1.932895
v 2.640383 -0.767532 0.707488
vt 0.989775 0.990400
vt 0.239475 0.741995
vt 0.257070 0.505217
vt 0.006486 0.505944
vt 0.507648 0.505944
vt 0.758965 0.741269
vt 0.758965 0.505217
vt 0.991954 0.741269
vt 0.008577 0.254480
vt 0.241567 0.490532
vt 0.257466 0.254480
vt 0.490455 0.490532
vt 0.508446 0.254480
vt 0.741436 0.490532
vt 0.761518 0.258663
vt 0.994507 0.494715
vt 0.006486 0.754349
vt 0.239475 0.990400
vt 0.257796 0.754349
vt 0.490786 0.990400
vt 0.507654 0.754349
vt 0.740644 0.990400
vt 0.756786 0.754349
vt 0.490059 0.741269
vt 0.740638 0.741995
vt 0.740638 0.505944
vt 0.756786 0.990400
vt 0.740644 0.754349
vt 0.507654 0.990400
vt 0.490786 0.754349
vt 0.257796 0.990400
vt 0.239475 0.754349
vt 0.006486 0.990400
vt 0.994507 0.258663
vt 0.761518 0.494715
vt 0.741436 0.254480
vt 0.508446 0.490532
vt 0.490455 0.254480
vt 0.257466 0.490532
vt 0.241567 0.254480
vt 0.008577 0.490532
vt 0.991954 0.505217
vt 0.507648 0.741995
vt 0.490059 0.505217
vt 0.989775 0.754349
vt 0.006486 0.741995
vt 0.257070 0.741269
vt 0.239475 0.505944
vn 0.866025 0.000000 -0.500000
vn 0.866025 0.000000 -0.500000
vn 0.866025 0.000000 -0.500000
vn 0.866025 0.000000 -0.500000
vn 0.500000 0.000000 -0.866025
vn 0.500000 0.000000 -0.866025
vn 0.500000 0.000000 -0.866025
vn 0.500000 0.000000 -0.866025
vn 0.000000 0.000000 -1.000000
vn 0.000000 0.000000 -1.000000
vn 0.000000 0.000000 -1.000000
vn 0.000000 0.000000 -1.000000
vn -0.500000 0.000000 -0.866025
vn -0.500000 0.000000 -0.866025
vn -0.500000 0.000000 -0.866025
vn -0.500000 0.000000 -0.866025
vn -0.866025 0.000000 -0.500000
vn -0.866025 0.000000 -0.500000
vn -0.866025 0.000000 -0.500000
vn -0.866025 0.000000 -0.500000
vn -1.000000 0.000000 0.000000
vn -1.000000 0.000000 0.000000
vn -1.000000 0.000000 0.000000
vn -1.000000 0.000000 0.000000
vn -0.866025 0.000000 0.500000
vn -0.866025 0.000000 0.500000
vn -0.866025 0.000000 0.500000
vn -0.866025 0.000000 0.500000
vn -0.500000 0.000000 0.866025
vn -0.500000 0.000000 0.866025
vn -0.500000 0.000000 0.866025
vn -0.500000 0.000000 0.866025
vn 0.000000 0.000000 1.000000
vn 0.000000 0.000000 1.000000
vn 0.000000 0.000000 1.000000
vn 0.000000 0.000000 1.000000
vn 0.500000 0.000000 0.866025
vn 0.500000 0.000000 0.866025
vn 0.500000 0.000000 0.866025
vn 0.500000 0.000000 0.866025
vn 0.866025 0.000000 0.500000
vn 0.866025 0.000000 0.500000
vn 0.866025 0.000000 0.500000
vn 0.866025 0.000000 0.500000
vn 1.000000 0.000000 0.000000
vn 1.000000 0.000000 0.000000
vn 1.000000 0.000000 0.000000
vn 1.000000 0.000000 0.000000
g slot_pCylinder6
f 1/46/1 13/4/2 14/48/3 2/2/4
f 2/47/5 14/3/6 15/44/7 3/24/8
f 3/43/9 15/5/10 16/26/11 4/25/12
f 4/6/13 16/7/14 17/42/15 5/8/16
f 5/41/17 17/9/18 18/40/19 6/10/20
f 6/39/21 18/11/22 19/38/23 7/12/24
f 7/37/25 19/13/26 20/36/27 8/14/28
f 8/35/29 20/15/30 21/34/31 9/16/32
f 9/33/33 21/17/34 22/32/35 10/18/36
f 10/31/37 22/19/38 23/30/39 11/20/40
f 11/29/41 23/21/42 24/28/43 12/22/44
f 12/27/45 24/23/46 13/45/47 1/1/48
